<svg xmlns="http://www.w3.org/2000/svg" viewBox="0 0 24 24" fill="none" stroke="#ffffff" stroke-width="2" stroke-linecap="round" stroke-linejoin="round">
  <path d="M12 3c1.5 0 2.5 1 3 2 1.5 0 2.5 1 3 2 1.5 0 2 1 2 2 0 1.5-1 2-2 2 0 1.5-1 2-2 2" />
  <path d="M12 3c-1.5 0-2.5 1-3 2-1.5 0-2.5 1-3 2-1.5 0-2 1-2 2 0 1.5 1 2 2 2 0 1.5 1 2 2 2" />
  <path d="M12 15v4" />
  <path d="M10 17h4" />
  <circle cx="12" cy="19" r="2" />
  <path d="M12 11c-.5-1.5.5-3 2-3" />
  <path d="M12 11c.5-1.5-.5-3-2-3" />
</svg> 